ffmpeg.exe : ffmpeg version 8.0-essentials_build-www.gyan.dev Copyright (c) 2000-2025 the 
FFmpeg developers
At line:1 char:1
+ & "c:\xampp\htdocs\thesis2\ffmpeg-8.0-essentials_build\bin\ffmpeg.exe ...
+ ~~~~~~~~~~~~~~~~~~~~~~~~~~~~~~~~~~~~~~~~~~~~~~~~~~~~~~~~~~~~~~~~~~~~~
    + CategoryInfo          : NotSpecified: (ffmpeg version ...mpeg developers:String) [], R 
   emoteException
    + FullyQualifiedErrorId : NativeCommandError
 
  built with gcc 15.2.0 (Rev8, Built by MSYS2 project)
  configuration: --enable-gpl --enable-version3 --enable-static --disable-w32threads 
--disable-autodetect --enable-fontconfig --enable-iconv --enable-gnutls --enable-libxml2 
--enable-gmp --enable-bzlib --enable-lzma --enable-zlib --enable-libsrt --enable-libssh 
--enable-libzmq --enable-avisynth --enable-sdl2 --enable-libwebp --enable-libx264 
--enable-libx265 --enable-libxvid --enable-libaom --enable-libopenjpeg --enable-libvpx 
--enable-mediafoundation --enable-libass --enable-libfreetype --enable-libfribidi 
--enable-libharfbuzz --enable-libvidstab --enable-libvmaf --enable-libzimg --enable-amf 
--enable-cuda-llvm --enable-cuvid --enable-dxva2 --enable-d3d11va --enable-d3d12va 
--enable-ffnvcodec --enable-libvpl --enable-nvdec --enable-nvenc --enable-vaapi 
--enable-openal --enable-libgme --enable-libopenmpt --enable-libopencore-amrwb 
--enable-libmp3lame --enable-libtheora --enable-libvo-amrwbenc --enable-libgsm 
--enable-libopencore-amrnb --enable-libopus --enable-libspeex --enable-libvorbis 
--enable-librubberband
  libavutil      60.  8.100 / 60.  8.100
  libavcodec     62. 11.100 / 62. 11.100
  libavformat    62.  3.100 / 62.  3.100
  libavdevice    62.  1.100 / 62.  1.100
  libavfilter    11.  4.100 / 11.  4.100
  libswscale      9.  1.100 /  9.  1.100
  libswresample   6.  1.100 /  6.  1.100
Input #0, rtsp, from 'rtsp://admin01:admin0101@192.168.1.13:554/stream1':
  Metadata:
    title           : Session streamed by "TP-LINK RTSP Server"
  Duration: N/A, start: 0.000000, bitrate: N/A
  Stream #0:0: Video: h264 (High), yuv420p(progressive), 1920x1080, 15 fps, 24.58 tbr, 90k 
tbn, start 0.037000
  Stream #0:1: Audio: pcm_alaw, 8000 Hz, mono, s16, 64 kb/s
Stream mapping:
  Stream #0:0 -> #0:0 (copy)
  Stream #0:1 -> #0:1 (copy)
[mp4 @ 000001852a9a55c0] Could not find tag for codec pcm_alaw in stream #1, codec not 
currently supported in container
[out#0/mp4 @ 000001852a70ee80] Could not write header (incorrect codec parameters ?): 
Invalid argument
Conversion failed!
